<mxfile host="app.diagrams.net" modified="2022-01-18T15:38:43.995Z" agent="5.0 (Windows NT 10.0; Win64; x64) AppleWebKit/537.36 (KHTML, like Gecko) Chrome/96.0.4664.110 Safari/537.36" etag="YxFHQbUzkoR_qByjph9p" version="16.0.0" type="github">
  <diagram id="nlvUe7PtBIuN8Jr8L9lM" name="Page-1">
    <mxGraphModel dx="782" dy="411" grid="1" gridSize="10" guides="1" tooltips="1" connect="1" arrows="1" fold="1" page="1" pageScale="1" pageWidth="850" pageHeight="1100" math="0" shadow="0">
      <root>
        <mxCell id="0" />
        <mxCell id="1" parent="0" />
        <mxCell id="ihhNQQesC3MCiyoyWyJ4-6" value="" style="rounded=0;whiteSpace=wrap;html=1;fillColor=#cdeb8b;strokeColor=#36393d;fontSize=18;" vertex="1" parent="1">
          <mxGeometry x="220" y="90" width="540" height="290" as="geometry" />
        </mxCell>
        <mxCell id="ihhNQQesC3MCiyoyWyJ4-1" value="System &lt;br style=&quot;font-size: 18px;&quot;&gt;Administrator" style="rounded=1;whiteSpace=wrap;html=1;fillColor=#1ba1e2;fontColor=#ffffff;strokeColor=#006EAF;fontSize=18;" vertex="1" parent="1">
          <mxGeometry x="245" y="160" width="140" height="105" as="geometry" />
        </mxCell>
        <mxCell id="ihhNQQesC3MCiyoyWyJ4-2" value="Organization Administrator" style="rounded=1;whiteSpace=wrap;html=1;fillColor=#60a917;strokeColor=#2D7600;fontColor=#ffffff;fontSize=18;" vertex="1" parent="1">
          <mxGeometry x="570" y="165" width="160" height="100" as="geometry" />
        </mxCell>
        <mxCell id="ihhNQQesC3MCiyoyWyJ4-3" value="" style="endArrow=classic;html=1;rounded=0;fontSize=18;strokeWidth=6;strokeColor=#FFFFFF;" edge="1" parent="1">
          <mxGeometry width="50" height="50" relative="1" as="geometry">
            <mxPoint x="440" y="214.5" as="sourcePoint" />
            <mxPoint x="530" y="214.5" as="targetPoint" />
            <Array as="points">
              <mxPoint x="495" y="214.5" />
            </Array>
          </mxGeometry>
        </mxCell>
        <mxCell id="ihhNQQesC3MCiyoyWyJ4-4" value="Option to create vDC" style="text;html=1;strokeColor=none;fillColor=none;align=center;verticalAlign=middle;whiteSpace=wrap;rounded=0;fontSize=18;" vertex="1" parent="1">
          <mxGeometry x="410" y="160" width="140" height="30" as="geometry" />
        </mxCell>
        <mxCell id="ihhNQQesC3MCiyoyWyJ4-7" value="Self-service Provisioning Model" style="text;html=1;strokeColor=none;fillColor=none;align=left;verticalAlign=middle;whiteSpace=wrap;rounded=0;fontSize=20;fontStyle=1;fontFamily=Times New Roman;" vertex="1" parent="1">
          <mxGeometry x="230" y="100" width="370" height="30" as="geometry" />
        </mxCell>
        <mxCell id="ihhNQQesC3MCiyoyWyJ4-9" value="Retain control over allocation pVDC, external network, etc." style="text;html=1;strokeColor=none;fillColor=none;align=left;verticalAlign=middle;whiteSpace=wrap;rounded=0;fontSize=18;" vertex="1" parent="1">
          <mxGeometry x="240" y="300" width="200" height="30" as="geometry" />
        </mxCell>
        <mxCell id="ihhNQQesC3MCiyoyWyJ4-10" value="Instantiate vDCs as per need" style="text;html=1;strokeColor=none;fillColor=none;align=right;verticalAlign=middle;whiteSpace=wrap;rounded=0;fontSize=18;" vertex="1" parent="1">
          <mxGeometry x="580" y="290" width="150" height="30" as="geometry" />
        </mxCell>
      </root>
    </mxGraphModel>
  </diagram>
</mxfile>
